<?xml version="1.0" encoding="utf-8"?>
<!-- Generator: Adobe Illustrator 22.0.0, SVG Export Plug-In . SVG Version: 6.00 Build 0)  -->
<svg version="1.1" xmlns="http://www.w3.org/2000/svg" xmlns:xlink="http://www.w3.org/1999/xlink" x="0px" y="0px"
	 viewBox="0 0 2264 2345" style="enable-background:new 0 0 2264 2345;" xml:space="preserve">
<style type="text/css">
	.st0{display:none;}
	.st1{display:inline;fill:#568389;}
	.st2{fill:#FFDDAC;}
	.st3{fill:#1A1A1A;}
	.st4{fill:#171516;}
	.st5{fill:#FFFFFF;}
	.st6{opacity:0.2;}
	.st7{fill:#F5D0B8;}
	.st8{fill:#C73B2A;}
	.st9{fill:#4A4342;}
	.st10{fill:#666261;}
	.st11{fill:#3E2C38;}
	.st12{fill:#333333;}
	.st13{opacity:0.5;fill:#FFFFFF;}
	.st14{fill:#3D3736;}
	.st15{fill:#F97D56;}
</style>
<g id="Layer_2" class="st0">
	<rect x="-4224" y="-2503" class="st1" width="8000" height="5000"/>
</g>
<g id="Layer_1">
	<path class="st2" d="M533.4,1064.9c58.2,8.9,119.2,4,172.7-20.5c12.5,20.5,19.8,44.2,21.2,68.1c2.1,37.6-26,37.1-54.4,40.9
		c-31.6,4.2-63.5,6-95.4,4.9c-62.9-2-125.5-14.5-184.4-36.7c-33.1-12.5-65.1-28-95.3-46.6c-47-28.8-89.4-64.3-131.4-100.1
		c0,0-63.7-21.5-76.9-38.7c0,0-45.2-31.9-43-74.1c0,0-1.4-39.2,18.2-31.3c0,0,11.4-48.6,41.6-26.3c0,0,12.6-52.3,50.7-18.5
		c0,0,17.1-35.5,40.9,2.8c0,0,5.2,9.1,28.8,24.7c0,0,26.4,19.1,17,54.9c0,0,4.9,7.3,21.2,44.9c4.7,10.4,10.7,20.2,17.8,29
		c22.4,27.9,53.6,47.2,85.2,63.9C419.8,1033.9,475.3,1056,533.4,1064.9z"/>
	<path class="st2" d="M1697.6,1084c-58.8-2-117.9-18-166-51.8c-16,17.9-27.6,39.8-33.3,63.1c-9,36.5,18.7,41.2,46,50.2
		c30.3,10,61.3,17.5,92.8,22.3c62.2,9.5,126,8.8,188-2.2c34.9-6.2,69.1-15.6,102.2-28.3c51.5-19.7,99.7-46.8,147.6-74.3
		c0,0,66.5-9.5,82.6-23.9c0,0,50.3-23.1,55.8-65c0,0,8.5-38.3-12.1-34.1c0,0-2.3-49.9-36.1-33.5c0,0-2.8-53.8-46.5-27.5
		c0,0-10.3-38-40.7-4.8c0,0-6.8,7.9-32.9,19c0,0-29.4,13.9-26.8,50.9c0,0-6.2,6.3-29,40.3c-6.5,9.4-14.3,17.9-22.8,25.3
		c-27.1,23.3-61.3,36.6-95.4,47.2C1815,1074.4,1756.4,1085.9,1697.6,1084z"/>
	<path class="st3" d="M1147.3,2218.6c-3.6,9.8-7.3,19.9-6.7,30.4c1.2,19.2,16.9,34.5,33.9,43.6c19.5,10.5,41.5,15.3,63.3,19.6
		c62.4,12.4,127.8,21.3,188.7,3c6.5-2,13.2-4.4,17.9-9.2c7.5-7.6,8.4-20.1,4.1-29.9s-12.9-17.1-22.3-22.1c-9.4-5-19.8-8-29.9-11.5
		c-52-17.9-99.2-49.5-135.5-90.7c-3.5-3.9-7-8.1-11.9-9.9c-4.6-1.8-9.8-1.2-14.7-0.6c-12.2,1.5-24.4,3-36.7,4.4
		c-7.7,0.9-21.3-0.5-25.8,7.1c-5.1,8.8-7.6,20.8-11.2,30.4C1156.1,2194.9,1151.7,2206.8,1147.3,2218.6z"/>
	<path class="st3" d="M1067.7,2218.6c3.6,9.8,7.3,19.9,6.7,30.4c-1.2,19.2-16.9,34.5-33.9,43.6c-19.5,10.5-41.5,15.3-63.3,19.6
		c-62.4,12.4-127.8,21.3-188.7,3c-6.5-2-13.2-4.4-17.9-9.2c-7.5-7.6-8.4-20.1-4.1-29.9s12.9-17.1,22.3-22.1c9.4-5,19.8-8,29.9-11.5
		c52-17.9,99.2-49.5,135.5-90.7c3.5-3.9,7-8.1,11.9-9.9c4.6-1.8,9.8-1.2,14.7-0.6c12.2,1.5,24.4,3,36.7,4.4
		c7.7,0.9,21.3-0.5,25.8,7.1c5.1,8.8,7.6,20.8,11.2,30.4C1058.9,2194.9,1063.3,2206.8,1067.7,2218.6z"/>
	<path class="st4" d="M817.7,1633.5c0,0,79.6,369.1,118.2,487.8h133.3c0,0-17.2-297.8-9.9-399.8c0,0,41.1,4.7,53.6,0.8V1634
		L817.7,1633.5z"/>
	<path class="st4" d="M1059.9,2167.3h-117c-10.3,0-18.7-8.4-18.7-18.7v-20.2c0-10.3,8.4-18.7,18.7-18.7h117
		c10.3,0,18.7,8.4,18.7,18.7v20.2C1078.5,2159,1070.2,2167.3,1059.9,2167.3z"/>
	<path class="st4" d="M1401,1633.5c0,0-80.4,369.1-118.9,487.8h-133.3c0,0,18-297.8,10.7-399.8c0,0-40.3,4.7-52.8,0.8V1634
		L1401,1633.5z"/>
	<path class="st4" d="M1158.1,2167.3h117c10.3,0,18.7-8.4,18.7-18.7v-20.2c0-10.3-8.4-18.7-18.7-18.7h-117
		c-10.3,0-18.7,8.4-18.7,18.7v20.2C1139.4,2159,1147.8,2167.3,1158.1,2167.3z"/>
	<path class="st5" d="M1642.1,1056l-112.6,136.6l-74.4-32.7l-54.1,473.5c0,0-73.9,47.8-281.9,43.2c-190.8,1.1-301.4-43.2-301.4-43.2
		l-43.9-473.5l-74.4,32.7L586.9,1056l268-200.3l7.3-5.5h0.5l227.8-0.7v-0.2l24,0.1l24-0.1v0.2l227.8,0.7h0.5l3.9,2.9L1642.1,1056z"
		/>
	<polygon class="st6" points="1122.1,1634.8 1247.7,1478.4 1166.5,1175.9 1211.8,1077.7 1122.1,1012.4 1122.1,1011.1 1121.2,1011.8 
		1120.2,1011.1 1120.2,1012.4 1030.5,1077.7 1075.9,1175.9 994.6,1478.4 1120.2,1634.8 1120.2,1637.1 1121.2,1636 1122.1,1637.1 	
		"/>
	<path class="st6" d="M1419.2,447.1v273c0,15.6-1.8,30.8-5.1,45.5c-9.2,31.7-25.7,60.6-47.8,84.7h0.5l3.9,2.9
		c-41.6,50.3-106.1,82.7-178.2,82.7c0,0-33.2,30.5-80.8,30.5c-47.6,0-80.8-30.5-80.8-30.5c-70.8,0-134.4-31.3-176-80.1l7.3-5.5h0.5
		c-34.7-37.9-55.8-87.4-55.8-141.3V435.9c0-15.3,1.7-30.3,4.9-44.7c26-91.8,114.5-160,219-160h161.6
		C1317.1,231.3,1419.2,328.4,1419.2,447.1z"/>
	<path class="st2" d="M1422,435.9V709c0,19.5-2.8,38.6-8,56.6c-9.2,31.7-25.7,60.6-47.8,84.7c-41.7,45.6-103,74.4-171,74.4
		c0,0-33.2,30.5-80.8,30.5c-47.6,0-80.8-30.5-80.8-30.5c-68,0-129.3-28.9-171-74.4c-34.7-37.9-55.8-87.4-55.8-141.3V435.9
		c0-15.3,1.7-30.3,4.9-44.7c21.8-97.4,113.2-171.1,221.8-171.1h161.6C1320,220.2,1422,317.3,1422,435.9z"/>
	<path class="st5" d="M1245.8,772.3c-11.1,30-39.3,66-109.2,83.9c0,0-102.5,31.2-150.6-77.7c-2-4.2-3.8-8.7-5.4-13.4
		c0,0,119.4,57.8,271.3-42C1251.9,723.1,1255.8,745.4,1245.8,772.3z"/>
	<path class="st7" d="M1103.9,862.6c-34.9,0-89-12.7-120-83.1c-1.9-4-3.7-8.5-5.5-13.5l-2-5.5l5.3,2.5c1.2,0.6,120.1,56,268.9-41.9
		l3-2l0.6,3.6c0.2,0.9,3.9,23.2-6.1,50.4v0c-10.6,28.7-38.5,66.8-110.9,85.4C1136.9,858.7,1123.3,862.6,1103.9,862.6z M984.8,769.5
		c1.1,2.9,2.3,5.5,3.4,8.1c46.6,105.7,143.6,77.7,147.7,76.4c70.5-18.1,97.5-54.9,107.7-82.5v0c7.3-19.7,6.9-37,6.3-44.3
		C1117.9,812.4,1009.3,778.9,984.8,769.5z"/>
	<path class="st8" d="M1245.8,772.3c-11.1,30-39.3,66-109.2,83.9c0,0-102.5,31.2-150.6-77.7C1036.2,806.2,1144,848,1245.8,772.3z"/>
	<path class="st9" d="M1431.6,707l-7.8,8.7c0,0-2.8-141.1-12-176.4c0,0-20.9-79.6-53.3-95.3c0,0,28.5-98.1-45.9-130.6
		c0,0-90.3,91.1-237.7,90.5c0,0-102.7,7.8-195.7-56c0,0-22.1,36.5-4.1,84c0,0-60,63.1-67.5,140.6c0,0-3.1,101.4,1.7,127.4
		c0,0-5.5-2.5-26.2-24.8c-16.7-18-23.6-41.2-29.4-64.6c-17.8-72.2-18-182.6-2.4-241.6c0,0,23-98.9,43.2-106.8
		c0,0-45.9-140.6-36.3-176.6c0,0,27.1,68.6,117.6,60.3c0,0-38.6-52.9-29.9-109.4c0,0,68.9,50.8,142,37.3c0,0,46.4-5,76.5-16.4
		c12.7-4.8,25.8-8.8,39.3-11.1c51.4-9,161.3-18.8,214.5,47.1c0,0,42,43.6,48.9,87.6c0,0,113,79.1,118.5,217.1
		c0,0,9.9,100.2-3.1,188.4c-4.5,30.8-14.3,60.6-28.7,88.5l0,0C1447.8,686.5,1440.3,697.2,1431.6,707z"/>
	<path class="st10" d="M782.2,144.2c0,0,91,319.4,422.6,204.8C1204.8,349,877.8,369.8,782.2,144.2z"/>
	<path class="st10" d="M872.5,84.4c0,0,103.5,279.6,391.8,156.6C1264.2,241,973.5,280,872.5,84.4z"/>
	<path class="st11" d="M965.5,564.1c-6.9,7.3-9.9,18.4-6.3,27.8c2.6,6.7,8.2,12,14.7,15.1c6.5,3,13.9,3.9,21.1,3.6
		c8.4-0.4,16.9-2.7,23.7-7.7c6.8-5,11.6-13,11.4-21.4c-0.1-8.5-5.3-16.4-12.3-21.2c-11.8-8-29.7-9.2-42.6-3.1
		C971.6,558.8,968.2,561.2,965.5,564.1z"/>
	<path class="st5" d="M999.3,559.7c-3.1-0.2-6.5,1-8.1,3.7c-1.7,2.9-1,6.7,0.4,9.8c2.4,5.4,6.5,10.1,11.6,13.1
		c3.5,2.1,7.9,3.5,11.7,1.8c3.2-1.5,5.2-5.1,5.2-8.7c0.1-3.6-1.5-7-3.8-9.8C1012.2,564.4,1006,560,999.3,559.7z"/>
	<path class="st11" d="M1213.3,564.1c-6.9,7.3-9.9,18.4-6.3,27.8c2.6,6.7,8.2,12,14.7,15.1c6.5,3,13.9,3.9,21.1,3.6
		c8.4-0.4,16.9-2.7,23.7-7.7c6.8-5,11.6-13,11.4-21.4c-0.1-8.5-5.3-16.4-12.3-21.2c-11.8-8-29.7-9.2-42.6-3.1
		C1219.4,558.8,1216.1,561.2,1213.3,564.1z"/>
	<path class="st5" d="M1247.2,559.7c-3.1-0.2-6.5,1-8.1,3.7c-1.7,2.9-1,6.7,0.4,9.8c2.4,5.4,6.5,10.1,11.6,13.1
		c3.5,2.1,7.9,3.5,11.7,1.8c3.2-1.5,5.2-5.1,5.2-8.7c0.1-3.6-1.5-7-3.8-9.8C1260.1,564.4,1253.9,560,1247.2,559.7z"/>
	<g>
		<path class="st12" d="M1428,525.7c-1.6-6.9-5-11.2-12.8-12.2c-11.3-1.4-21.5-6.4-31-12.6c-22.5-14.6-46.8-24.7-73.4-28.5
			c-24-3.4-47.6-0.9-71.2,4.2c-25.5,5.5-45.7,19.5-64.4,36.5c-4.1,3.7-8,7.5-11.9,11.3c-6.9,6.5-12.2,7.1-20.2,1.9
			c-7.3-4.7-14.7-7.2-22.1-7.9c-7.4,0.6-14.8,3.1-22.1,7.9c-8,5.2-13.2,4.7-20.2-1.9c-4-3.8-7.9-7.6-11.9-11.3
			c-18.7-16.9-38.9-31-64.4-36.5c-23.6-5.1-47.1-7.7-71.2-4.2c-26.7,3.8-51,13.9-73.5,28.5c-9.5,6.2-19.7,11.2-31,12.6
			c-7.9,1-11.2,5.3-12.8,12.2c-0.8,3.5-1.2,7.1-1.9,10.7v13.5c1.9,2.2,3.4,5.1,5.8,6.5c9.2,5.6,14.2,13.6,16.3,24
			c2,9.7,4.1,19.5,7.1,29c8.3,26.9,22.4,49.5,46.9,65.1c30.8,19.6,63.4,28.4,99.5,19c25.8-6.7,49-18.1,67.6-37.7
			c15.3-16.3,24.9-35.7,31.6-56.8c2.1-6.4,3.7-13,5.8-19.4c2.8-8.5,8.6-14.1,17.5-15.1c3.6-0.4,7.2-0.6,10.9-0.7
			c3.6,0.1,7.3,0.3,10.9,0.7c8.9,1,14.7,6.6,17.5,15.1c2.1,6.4,3.7,13,5.8,19.4c6.7,21.1,16.3,40.6,31.6,56.8
			c18.5,19.7,41.8,31.1,67.6,37.7c36.1,9.4,68.7,0.7,99.5-19c24.5-15.6,38.6-38.2,46.9-65.1c3-9.5,5.1-19.3,7.1-29
			c2.1-10.4,7.1-18.4,16.3-24c2.4-1.4,3.9-4.3,5.8-6.5v-13.5C1429.2,532.8,1428.7,529.2,1428,525.7z M1021.6,660.6
			c-18.8,13.3-39.8,19.5-64.5,19.8c-29.7-0.8-56.8-11.6-77.7-35.5c-32.5-36.8-30.8-90.3,3.5-125.4c41.1-42.1,111.7-42,152.7,0.2
			C1076,561.3,1069.6,626.7,1021.6,660.6z M1362.5,644.9c-21,23.8-48,34.7-77.7,35.5c-24.6-0.2-45.7-6.4-64.5-19.8
			c-48-33.9-54.4-99.3-14-140.8c41-42.2,111.6-42.3,152.7-0.2C1393.3,554.6,1395,608.1,1362.5,644.9z"/>
		<path class="st13" d="M1021.6,660.6c-18.8,13.3-39.8,19.5-64.5,19.8c-29.7-0.8-56.8-11.6-77.7-35.5
			c-32.5-36.8-30.8-90.3,3.5-125.4c41.1-42.1,111.7-42,152.7,0.2C1076,561.3,1069.6,626.7,1021.6,660.6z"/>
		<path class="st13" d="M1362.5,644.9c-21,23.8-48,34.7-77.7,35.5c-24.6-0.2-45.7-6.4-64.5-19.8c-48-33.9-54.4-99.3-14-140.8
			c41-42.2,111.6-42.3,152.7-0.2C1393.3,554.6,1395,608.1,1362.5,644.9z"/>
	</g>
	<path class="st14" d="M882.5,443.9c0,0,10.4-27.7,60.3-32c0,0,100.2-7.5,118,25.5l-78.6-6.5c-6-0.5-12.2-0.6-18.2-0.4
		C947.2,431.3,912.8,434.1,882.5,443.9z"/>
	<path class="st14" d="M1348.3,443.9c0,0-10.4-27.7-60.3-32c0,0-100.2-7.5-118,25.5l78.6-6.5c6-0.5,12.2-0.6,18.2-0.4
		C1283.6,431.3,1318.1,434.1,1348.3,443.9z"/>
	<polygon class="st15" points="1112.6,1625.3 1238.2,1468.9 1156.9,1166.4 1202.3,1068.2 1112.6,1002.9 1112.6,1001.6 
		1111.6,1002.2 1110.7,1001.6 1110.7,1002.9 1021,1068.2 1066.3,1166.4 985.1,1468.9 1110.7,1625.3 1110.7,1627.6 1111.6,1626.4 
		1112.6,1627.6 	"/>
</g>
</svg>
